<?xml version="1.0" encoding="utf-8"?>
<!-- Generator: Adobe Illustrator 16.0.0, SVG Export Plug-In . SVG Version: 6.00 Build 0)  -->
<!DOCTYPE svg PUBLIC "-//W3C//DTD SVG 1.1//EN" "http://www.w3.org/Graphics/SVG/1.1/DTD/svg11.dtd">
<svg version="1.1" id="图层_1" xmlns="http://www.w3.org/2000/svg" xmlns:xlink="http://www.w3.org/1999/xlink" x="0px" y="0px"
	 width="242.971px" height="265.967px" viewBox="0 0 242.971 265.967" enable-background="new 0 0 242.971 265.967"
	 xml:space="preserve">
<g>
	<path d="M178.738,73.946c-1.13-1.15-2.615-2.117-3.319-3.486c-1.949-3.79-3.573-7.747-5.326-11.638
		c-0.472-0.031-0.941-0.063-1.412-0.094c-0.458,2.729-1.258,5.451-1.313,8.188c-0.214,10.681-3.134,19.018-8.858,24.11
		c-3.086-2.093-6.183-4.191-9.854-6.68c-0.567,0.463-1.929,1.57-3.142,2.558c5.297,4.268,10.247,8.581,15.548,12.408
		c3.146,2.273,3.682,4.293,3.461,8.414c-0.793,14.854,0.199,29.593,12.145,40.839c0.238,0.225,0.399,0.529,0.596,0.799
		c-4.453-3-8.803-5.986-10.1-11.805c-1.166-5.224-2.737-10.357-4.236-15.926c-0.931,0.71-1.532,1.17-2.136,1.63
		c1.735-5.571,2.593-11.162,0.744-16.598c-7.443-0.276-10.119,3.848-11.322,10.281c-0.566,3.024-2.983,5.701-4.563,8.536
		c1.411-3.898,2.821-7.796,4.232-11.693c-0.419-0.217-0.837-0.434-1.257-0.65c-1.091,1.339-2.116,2.739-3.292,4.001
		c-1.068,1.148-2.129,2.705-3.485,3.117c-6.628,2.012-8.97,5.529-7.713,12.164c0.332,1.75,0.494,3.53,0.744,5.376
		c1.063-0.352,1.987-0.658,2.914-0.967c-3.35,4.529-6.602,9.135-10.076,13.563c-2.78,3.543-2.182,5.934,1.963,7.539
		c-2.143-0.668-4.284-1.336-7.056-2.201c3.425-5.051,6.035-8.902,7.98-11.771c-4.245-1.334-8.334-2.617-13.106-4.117
		c1.742-1.393,3.24-2.588,4.742-3.787c0.308,1.002,0.628,2.875,0.907,2.867c1.588-0.033,3.165-0.518,4.772-0.854
		c0.681,3.045,0.681,3.045,6.368,1.996c-1.882-3.666-3.583-6.98-5.396-10.512c-2.941,2.873-4.883,4.768-6.824,6.662
		c2.05-3.821,4.1-7.644,6.307-11.761c-4.285-0.936-7.142-1.559-10.833-2.364c-1.089,4.467-2.404,8.866-3.184,13.357
		c-0.675,3.891-2.369,6.471-5.884,8.563c-8.278,4.934-15.99,10.668-22.419,19.795c15.627-6.432,28.629-2.137,41.02,5.85
		c10.929,7.043,22.684,9.936,35.687,7.611c8.272-1.479,14.624-5.48,18.462-12.91c0.905-1.754,0.909-4.473,0.276-6.402
		c-1.006-3.074-2.894-5.861-4.407-8.77c0.771,0.867,1.923,1.611,2.251,2.621c3.172,9.762,11.537,9.072,19.402,10.52
		c10.657,1.959,21.253,4.701,31.525,8.15c7.026,2.359,11.276,7.604,10.11,16.063c-1.534,11.121-2.985,22.295-3.513,33.492
		c-0.199,4.256,2.245,8.641,3.522,12.955c0.301,1.016,0.755,1.986,1.208,3.156c-4.404-0.66-10.319,2.816-11.229,6.822
		c-1.01,4.447-3.495,7.506-7.35,9.48c-6.913,3.541-13.985,6.773-20.882,10.348c-6.896,3.572-13.99,1.648-20.994,1.01
		c-10.219-0.934-20.402-2.262-30.603-3.418c-16.167-1.828-32.354-3.504-48.483-5.615c-3.11-0.406-5.999-2.512-9.662-4.133
		c-1.048,0.84-3.236,4.064-5.302,3.986c-9.109-0.334-18.265-1.176-27.228-2.801c-3.179-0.578-6.795-3.486-4.351-7.379
		c-4.728-3.469-9.46-6.795-13.994-10.375c-1.042-0.822-1.901-2.49-1.971-3.816c-0.221-4.18-0.243-8.396,0.069-12.57
		c0.317-4.232,2.293-5.076,6.534-3.529c5.041,1.842,10.131,3.557,15.242,5.195c0.885,0.283,2.082,0.166,2.946-0.205
		c1.078-0.461,1.961-1.379,2.929-2.098c-0.965-0.689-1.842-1.646-2.917-2c-1.388-0.459-3.013-0.197-4.399-0.658
		c-4.915-1.631-5.954-4.188-5.289-12.133c-4.004-2.613-7.911-5.207-11.864-7.729c-2.864-1.828-4.709-4.865-3.173-7.568
		c2.388-4.201,0.493-7.785,0.014-11.643c-0.91-7.314,2.467-13.109,6.704-18.561c0.689-0.887,1.687-1.537,2.98-2.688
		c-1.384-0.695-2.135-1.074-2.681-1.35c1.373-0.477,2.908-1.023,4.452-1.545c4.991-1.684,9.873-4.074,15.001-4.867
		c8.212-1.271,15.205,2.051,20.929,8.02c0.667,0.695,1.428,1.303,1.776,1.617c6.926-4.885,13.681-9.371,20.076-14.322
		c1.946-1.508,2.898-4.301,3.916-7.158c-5.434,1.826-8.737-0.558-11.505-4.104c-2.931-3.756-2.187-7.793-0.532-11.782
		c1.71-4.126,3.402-8.265,5.312-12.3c1.819-3.848,3.906-7.569,6.083-11.744c-1.538-0.219-2.916-0.415-4.449-0.633
		c-0.567,2.656-0.902,5.121-1.677,7.438c-0.347,1.04-1.432,2.297-2.425,2.569c-2.85,0.78-13.082-6.076-13.604-9.125
		c-0.722-4.222-1.086-8.505-2.118-13.147c0.396,5.437-0.732,9.518-7.454,9.152c0-2.418,0-4.861,0-7.452
		c-2.111-0.253-3.86-0.462-5.229-0.626c-1.666-6.156,5.607-12.166-0.475-18.661c0.746-1.633,1.764-3.865,2.771-6.074
		c-13.691-8.311-11.349-27.631,0.585-35.67c2.04-1.373,4.902-1.601,7.432-2.143c1.44-0.309,3.389,0.39,4.402-0.342
		c7.319-5.282,15.875-7.96,24.24-10.351c6.969-1.993,14.689-2.15,22.01-1.78c3.686,0.187,5.963,0.178,7.394-3.546
		c4.604,3.329,6.353-0.756,8.789-3.065c0.334,0,0.667,0,1,0c0.368,1.565,0.735,3.131,1.112,4.737
		c8.708-7.033,22.337-3.797,28.992,5.514c7.655,10.708,9.216,22.067-3.219,34.03c1.202,0.774,2.369,1.526,4.057,2.614
		c-1.938,1.747-3.584,3.229-5.406,4.871c1.806,1.646,3.5,3.191,5.388,4.913c-1.214,1.679-2.345,3.244-3.433,4.75
		c3.866,7.45,3.866,7.45-2.097,11.45c1.216-1.677,2.435-3.348,3.868-5.319c-1.569-2.274-3.206-4.645-4.842-7.016
		c-0.512,0.067-1.024,0.135-1.537,0.203c-0.2,1.864-0.89,3.845-0.479,5.565C176.302,69.678,177.703,71.768,178.738,73.946z
		 M214.919,191.545c1.549-0.813,3.291-1.393,4.596-2.494c1.763-1.492,3.188-3.383,5.001-5.367
		c-4.324,0.541-9.288-0.686-14.709,2.441c3.301,0.799,5.567,1.35,7.705,1.867c-0.972,1.393-1.743,2.498-2.56,3.574
		c-2.332-0.311-4.664-0.619-6.984-0.928c0.372-1.334,0.78-2.805,1.189-4.273c-1.465,0.93-2.354,2.121-2.342,3.303
		c0.015,1.371,0.424,3.242,1.374,3.984c1.526,1.189,3.594,1.738,4.718-1.029C213.128,192.08,214.225,191.895,214.919,191.545z
		 M139.814,255.641c-7.408-1.111-14.816-2.227-22.224-3.338c-0.074,0.629-0.148,1.258-0.224,1.889
		c7.524,0.455,15.047,0.912,22.571,1.367c1.986,0.248,4.246,1.16,5.858,0.498c0.995-0.408,1.006-3.219,1.569-5.379
		c-6.717-0.469-12.484-0.869-18.253-1.271c-0.017,0.342-0.032,0.682-0.048,1.021c4.811,0.313,9.62,0.621,13.18,0.854
		c-0.204,1.57-0.293,2.887-0.619,4.141C141.574,255.625,140.473,255.555,139.814,255.641z M46.954,220.688
		c-1.569-1.246-3.141-2.492-4.711-3.738c-0.521,0.393-1.043,0.787-1.564,1.18c1.231,2.197,2.016,5.688,3.797,6.305
		c3.1,1.078,7.009,3.654,10.229-0.322c3.662,0.266,7.323,0.529,10.984,0.795c-7.547,5.047-15.622,2.205-23.657,1.729
		c5.258,4.283,11.731,4.178,18.006,4.754c-0.091,0.482-0.182,0.967-0.272,1.447c-6.206-1.07-12.411-2.143-19.02-3.281
		c3.729,6.404,9.235,10.109,15.95,11.121c12.429,1.871,16.373-1.258,19.257-11.223c1.653-5.709,3.539-11.354,5.098-17.09
		c0.432-1.59,0.065-3.398,0.065-5.107c-0.278-0.057-0.557-0.109-0.835-0.166c-0.265,0.721-0.531,1.439-0.797,2.158
		c-2.82,2.426-5.731,4.754-8.441,7.297c-6.108,5.729-11.514,6.428-18.914,2.377c-2.424-1.328-4.961-2.447-7.446-3.662
		c-0.21,0.32-0.42,0.645-0.631,0.965C45.019,217.711,45.987,219.199,46.954,220.688z M141.815,100.116
		c0.962-2.448,1.923-4.896,2.998-7.639c-0.853-1.248-1.857-2.721-2.773-4.062c-2.549,1.09-4.897,1.939-7.1,3.073
		c-2.719,1.401-5.897,2.517-7.844,4.683c-4.104,4.565-2.077,17.917,3.548,24.731c0.708-0.93,1.379-1.813,2.05-2.694
		c0,1.088,0,2.176,0,3.538c4.983-3.648,9.815-6.75,14.121-10.463c4.087-3.523,7.623-7.686,11.401-11.566
		c-4.235,4.311-8.224,1.813-12.394-0.119C144.789,99.12,143.168,99.91,141.815,100.116z M151.223,13.888
		c0.313-3.127,0.628-6.256,0.94-9.383c-0.337-0.121-0.674-0.242-1.011-0.362c-1.528,1.628-3.056,3.258-4.581,4.886
		c-0.602-0.459-1.501-1.145-2.894-2.208c0,4.42,0,8.056,0,10.298c3.357,1.004,5.46,1.633,7.563,2.262
		c0.039,0.569,0.077,1.139,0.115,1.708c-0.574,0.667-1.78,1.588-1.63,1.965c2.029,5.051,4.247,10.027,6.418,15.021
		c0.325-0.144,0.649-0.287,0.975-0.43c-0.3-2.474-0.6-4.948-0.898-7.424c0.763,1.644,1.683,3.234,2.26,4.94
		c1.805,5.334,8.421,10.081,13.975,9.992c6.926-0.11,10.621-4.301,12.919-8.65c-3.161,0.417-7.021,1.816-10.531,1.208
		c-7.642-1.323-15.285-13.842-13.828-21.443c1.396-7.284,8.229-10.831,14.149-7.178c1.027,0.634,1.992,2.286,1.943,3.422
		c-0.031,0.731-2.025,2.041-3.039,1.952c-3.903-0.345-4.652,1.638-4.266,4.851c1.015,8.441,6.857,11.394,14.371,6.878
		c0.958,1.645,1.912,3.285,2.867,4.924c-0.24-5.364-0.798-10.786-2.972-15.455c-3.575-7.679-10.436-11.32-18.834-11.828
		C157.913,3.394,154.162,8.121,151.223,13.888z M113.544,201.311c4.139,9.16,8.253,18.314,7.549,28.77
		c-0.079,1.17,0.608,2.393,0.94,3.592c-1.337,0.053-2.854-0.283-3.979,0.23c-4.458,2.035-7.616,0.51-8.795-4.459
		c-0.957-4.029-1.62-8.18-3.059-12.035c-2.673-7.164-5.815-14.152-8.764-21.215c-1.388,14.244-0.044,27.906,3.844,41.287
		c1.21,4.164,3.532,7.246,8.091,7.725c20.669,2.162,41.35,4.217,62.021,6.34c3.354,0.344,5.521-0.977,6.22-4.291
		c1.029-4.869,2.218-9.73,2.822-14.658c1.272-10.369,2.235-20.775,3.274-31.172c0.596-5.938-2.173-12.324-10.59-12.449
		c-8.446-0.127-16.875-1.596-25.311-2.479c-7.041-0.738-14.08-1.482-20.334-2.141c0.62,9.322,1.198,18.223,1.817,27.117
		c0.093,1.316,0,2.852,0.64,3.889c3.287,5.336,0.978,9.857-1.75,14.387c0.584-3.539,1.754-7.105,1.61-10.613
		c-0.205-5.033-1.36-10.025-2.122-15.033c-0.969-6.371-1.584-12.826-3.042-19.086c-1.104-4.736-3.453-9.252,3.34-12.398
		c-3.928-2.318-6.839-4.225-9.913-5.814c-6.902-3.572-9.904-1.756-10.232,6.068c-0.055,1.32-0.101,2.695,0.186,3.971
		c1.842,8.219,3.775,16.418,5.666,24.607c-5.78-12.127-9.841-24.475-4.851-38.027c-1.348-0.238-2.646-0.549-3.966-0.688
		c-9.783-1.041-13.844,3.531-11.75,13.219c0.351,1.625,0.67,3.271,1.226,4.832c6.05,16.975,12.144,33.934,18.36,51.279
		c0.911,0.109,2.503,0.307,4.262,0.52c2.034-5.451,2.953-10.604,1.035-16.131C116.268,211.488,115.009,206.363,113.544,201.311z
		 M123.121,32.078c4.784,4.44,9.038,8.389,13.291,12.336c0.257-0.218,0.515-0.436,0.771-0.653c-0.465-1.457-0.932-2.914-1.555-4.865
		c7.363,5.392,7.752,6.016,13.984,21.108c0-3.403,0-6.806,0-10.209c0.365-0.007,0.73-0.015,1.096-0.021
		c0.773,4.462,1.548,8.926,2.479,14.304c5.439-7.829,5.171-15.512,2.546-22.994c-3.442-9.812-9.936-17.57-18.435-23.6
		c-0.792-0.562-2.311-1.283-2.234-1.708c1.22-6.885-4.396-6.669-7.774-6.221c-6.984,0.927-13.963,2.72-20.632,5.049
		c-15.17,5.297-25.365,20.813-24.619,36.805c0.25,5.346,1.735,10.281,6.778,14.034c0-5.356,0-10.136,0-15.304
		c1.434,3.077,2.651,5.692,3.868,8.306c0.395-0.162,0.79-0.323,1.184-0.485c1.5-11.997,3-23.993,4.5-35.99
		c-0.038,15.951,5.735,26.738,15.939,28.084c-1.277-2.712-2.531-5.377-4.285-9.105c7.854,3.52,14.069,6.306,20.283,9.09
		c0.214-0.391,0.427-0.781,0.641-1.172C128.418,43.445,125.89,38.02,123.121,32.078z M96.002,56.2
		c1.658-1.397,2.416-2.036,3.23-2.723c-1.068,3.559-2.425,6.819-2.981,10.212c-0.964,5.88,2.018,10.504,5.345,15.059
		c1.094,1.498,2.012,4.976,1.268,5.667c-5.146,4.769,0.095,5.749,2.563,6.583c16.032,5.422,30.085,0.609,42.817-9.289
		c1.424-1.107,1.604-3.817,2.706-6.686c-3.41,1.07-5.187,1.627-7.838,2.459c0.826-1.787,1.072-2.575,1.514-3.233
		c3.023-4.507,2.942-9.46,1.819-14.422c-0.227-1.001-1.916-1.671-2.93-2.494c-0.41,1.078-1.083,2.137-1.166,3.239
		c-0.11,1.472,0.679,3.114,0.271,4.432c-0.466,1.509-1.611,3.558-2.847,3.874c-1.306,0.334-4.065-0.736-4.452-1.815
		c-1.826-5.101-5.771-6.167-10.435-6.486c-0.458,3.868-3.186,3.587-5.862,3.065c-9.257-1.807-15.689-7.398-20.391-16.434
		C97.677,50.474,96.999,52.792,96.002,56.2z M79.721,175.781c-0.903-9.623-4.29-14.998-9.659-15.896
		c-6.334-1.057-11.654,2.277-14.66,9.311c-1.255-0.244-2.541-0.551-3.842-0.734c-6.228-0.877-10.537,3.047-9.629,9.316
		c0.408,2.814,2.057,5.469,3.268,8.139c0.662,1.461,2.1,2.732,2.305,4.211c1.081,7.74,4.136,10.193,11.924,8.703
		c7.101-1.357,13.51-3.992,19.13-8.99c5.183-4.609,4.521-10.67,6.011-16.531C82.978,174.119,81.617,174.814,79.721,175.781z
		 M214.15,193.475c2.083,15.514,1.333,31.205,9.371,45.799c3.349-0.924,6.795-2.055,10.322-2.803
		c4.56-0.967,4.571-3.611,3.541-7.359c-2.194-7.984-4.267-16.018-5.968-24.115c-1.007-4.791-1.211-9.75-1.753-14.443
		C224.319,191.559,219.613,192.445,214.15,193.475z M200.321,226.865c1.256-12.365,4.021-24.596,1.864-36.432
		c-4.089,0.311-7.376,0.559-11.991,0.908c-3.046,3.609-6.91,8.338-1.743,15.248c1.229,1.643,0.23,5.043-0.114,7.584
		c-0.027,0.209-2.925,0.027-4.378,0.027c0,2.742,0,5.615,0,8.488c0.297-0.01,0.594-0.02,0.891-0.029
		c-0.068-1.285-0.139-2.572-0.206-3.859c1.074,9.373,10.393,3.639,13.567,7.656c0.402-1.836,0.813-3.707,1.223-5.576
		c0.297,0.047,0.593,0.092,0.889,0.139C200.321,222.967,200.321,224.916,200.321,226.865z M57.063,244.863
		c1.592,2.713,2.169,5.203,3.507,5.721c6.297,2.434,12.732,2.756,18.396-1.732c10.59-8.391,10.284-22.52,4.279-37.854
		c-1.442,4.779-2.586,8.703-3.813,12.6C76.136,234.066,73.43,245.111,57.063,244.863z M115.71,122.255
		c-0.451-0.086-0.904-0.173-1.355-0.259c-0.639,1.723-1.279,3.448-1.918,5.171c3.093-7.98-0.211-17.787,6.833-24.707
		c0.701-0.688-0.145-3.343-0.786-4.868c-0.424-1.008-1.769-1.628-2.701-2.421c-0.437-0.427-0.874-0.854-1.31-1.28
		c-0.942,1.585-2.048,3.096-2.797,4.768c-3.457,7.713-6.921,15.428-10.117,23.251c-0.64,1.562-0.723,3.905,0.01,5.343
		c1.054,2.07,2.819,4.613,4.778,5.153c1.97,0.543,5.408-0.43,6.647-1.981C114.676,128.321,114.875,125.034,115.71,122.255z
		 M212.41,197.309c-4.938,2.711-6.299,5.965-5.486,10.473c0.713,3.963,0.678,8.064,0.883,12.111
		c0.075,1.463-0.766,3.563-0.063,4.299c2.769,2.9,1.92,5.344,0.209,8.279c2.214-2.521,4.07-5.236,4.731-8.219
		c1.061-4.775-3.881-10.143,1.293-14.689c0.238-0.209,0.054-0.963-0.016-1.451C213.473,204.619,212.961,201.129,212.41,197.309z
		 M123.786,107.095c-5.701,2.601-7.591,6.994-5.209,11.51c2,3.791,4.728,4.313,8.905,1.697
		C126.283,116.021,125.085,111.741,123.786,107.095z M237.343,194.047c0.368-0.037,0.736-0.076,1.105-0.115
		c-0.549-5.348-1.097-10.693-1.628-15.871c-3.585,1.002-6.031,1.686-9.273,2.59c2.485,1.959,4.229,3.332,4.843,3.814
		c-0.327,3.574-0.581,6.342-0.911,9.961c2.327-2.088,3.826-3.432,5.558-4.982C237.156,191.26,237.249,192.652,237.343,194.047z
		 M185.634,225.721c-0.46,5.615,0.779,6.549,7.785,6.164c0.993-0.053,1.936-1.023,2.9-1.57c-0.676-1.064-1.151-2.793-2.063-3.068
		C191.598,226.445,188.768,226.227,185.634,225.721z M89.809,21.353c-3.512,0.419-5.925,0.706-7.622,0.908
		c-0.171,2.883-0.278,4.938-0.42,6.99c-0.135,1.949-0.307,3.896-0.562,7.082C84.318,30.917,86.685,26.795,89.809,21.353z
		 M91.821,164.74c-0.396-0.467-0.792-0.934-1.187-1.398c-2.315,2.148-4.629,4.297-6.944,6.445c1.896,1.225,3.792,2.451,6.226,4.023
		C90.704,170.059,91.263,167.4,91.821,164.74z M84.829,251.666c0.247,0.52,0.493,1.035,0.74,1.555
		c1.53-0.947,3.64-1.553,4.451-2.924c1.164-1.969,1.38-4.496,2-6.783c-0.381-0.057-0.763-0.109-1.145-0.166
		C88.861,246.119,86.845,248.893,84.829,251.666z M161.781,256.146c0.828-3.586,2.758-3.221,5.006-1.787
		c0.521,0.332,1.2,0.99,1.563,0.854c0.578-0.217,0.95-0.979,1.55-1.672c-10.813-2.334-14.509-1.979-16.134,1.971
		C156.848,251.771,159.301,253.664,161.781,256.146z M83.391,249.369c4.149-3.428,7.323-7.285,6.485-14.211
		C87.385,240.621,85.387,244.994,83.391,249.369z M173.549,50.179c-2.255-1.922-3.621-3.088-5.323-4.54
		c0.179,2.288,0.299,3.832,0.501,6.423c2.883-0.827,5.654-1.622,9.663-2.772c-2.452-1.501-3.635-2.227-5.016-3.073
		C173.429,47.478,173.468,48.334,173.549,50.179z M76.864,27.401c-0.493-0.209-0.986-0.417-1.479-0.625
		c-1.529,2.42-3.06,4.84-4.868,7.704c1.979,0.604,3.139,0.956,4.76,1.45C75.848,32.858,76.356,30.13,76.864,27.401z M71.641,50.431
		c0.845,0.247,1.005,0.337,1.157,0.323c0.097-0.009,0.242-0.16,0.26-0.265c0.305-1.929,0.871-3.875,0.771-5.788
		c-0.053-1.023-1.256-1.988-1.939-2.978c-0.521,0.246-1.041,0.493-1.562,0.74C70.784,45.221,71.238,47.979,71.641,50.431z"/>
	<path d="M1.369,249.043c1.443-1.303,2.888-2.604,4.331-3.906c-0.183-0.242-0.366-0.484-0.55-0.729
		c0.312-0.094,0.685-0.352,0.926-0.258c9.309,3.541,15.025-1.701,20.23-8.227c1.121-1.406,3.132-4.09,3.266-4
		c3.101,2.082,7.792,2.48,8.326,7.477c0.208,1.945,0.775,3.867,1.32,5.762c1.637,5.691,5.191,8.709,11.376,8.023
		c0.769-0.084,1.574,0.176,2.362,0.273c0.295,0.467,0.591,0.934,0.886,1.398c-2.289,1.648-4.403,4.318-6.901,4.75
		c-6.759,1.16-11.943-1.664-13.962-7.293c-5.735,2.184-10.974,4.99-16.549,6.092c-6.318,1.246-11.395-2.115-15.062-7.363
		C1.369,250.375,1.369,249.709,1.369,249.043z M34.357,240.211c0.019,2.973-0.675,6.191,0.251,8.848
		c0.989,2.834,3.027,5.873,5.485,7.477c2.876,1.873,6.72,2.506,10.585-1.068c-12.665,0.791-12.376-9.051-14.82-16.895
		c-0.773,0.867-1.19,1.334-1.607,1.801c-1.386-2.457-2.771-4.912-4.624-8.193c0.408,8.025-3.963,12.01-8.104,16.271
		c-5.332,5.49-11.579,3.115-17.882,2.223c3.362,5.268,11.447,7.395,17.853,5.238C29.125,253.344,32.46,247.41,34.357,240.211z
		 M7.215,246.586c3.483,4.631,8.876,4.707,12.922,0C15.927,246.586,11.779,246.586,7.215,246.586z"/>
	<path d="M110.144,64.589c0.228,2.936,0.667,5.091,0.482,7.193c-0.189,2.168-0.985,4.284-1.517,6.423
		c-1.938-1.013-4.006-1.843-5.778-3.092c-1.688-1.192-3.07-2.823-5.154-4.799C102.132,68.423,106.267,66.445,110.144,64.589z"/>
	<path d="M67.068,170.262c-0.782,1.746-1.564,3.494-2.43,5.43c-1.149-3.641,0.479-6.182,3.612-6.793
		c1.95-0.383,4.964,0.66,6.229,2.146c0.905,1.063-0.298,3.92-0.562,5.979c-1.729-0.854-3.699-1.432-5.094-2.662
		c-0.763-0.676-0.553-2.453-0.781-3.732C67.719,170.506,67.393,170.385,67.068,170.262z"/>
	<path d="M47.875,181.127c-0.156,0.512-0.563,1.838-0.97,3.168c-0.701-3.738,0.469-6.656,3.521-6.883
		c1.832-0.135,4.241,1.176,5.506,2.615c0.567,0.645-1.031,3.195-1.647,4.883C52.197,183.678,50.11,182.447,47.875,181.127z"/>
	<path d="M228.525,225.541c-0.156,1.889-0.254,3.068-0.465,5.625c-2.199-4.932-3.825-8.58-5.453-12.23
		c0.445-0.191,0.891-0.387,1.336-0.578c0.588,1.074,1.176,2.148,1.963,3.588c0.437-1.363,0.78-2.443,1.248-3.91
		c1.476,1.117,2.519,1.906,3.899,2.953c-0.584,0.707-1.344,1.627-1.963,2.379c0.873,1.047,1.769,2.123,2.664,3.197
		c-0.236,0.252-0.474,0.504-0.71,0.756C230.427,226.885,229.808,226.447,228.525,225.541z"/>
	<path d="M220.666,212.797c-0.412-2.779-0.816-5.514-1.223-8.246c0.314-0.121,0.629-0.242,0.943-0.363
		c1.104,2.396,2.212,4.797,3.531,7.658c1.11,0.088,2.688,0.211,4.265,0.336c-0.003,0.205-0.005,0.41-0.008,0.615
		C225.695,212.797,223.218,212.797,220.666,212.797z"/>
</g>
</svg>
