<?xml version="1.0" encoding="utf-8"?>
<!-- Generator: Adobe Illustrator 16.0.0, SVG Export Plug-In . SVG Version: 6.00 Build 0)  -->
<!DOCTYPE svg PUBLIC "-//W3C//DTD SVG 1.1//EN" "http://www.w3.org/Graphics/SVG/1.1/DTD/svg11.dtd">
<svg version="1.1" id="图层_0_xA0_图像_1_" xmlns="http://www.w3.org/2000/svg" xmlns:xlink="http://www.w3.org/1999/xlink"
	 x="0px" y="0px" width="192.982px" height="169.842px" viewBox="0 0 192.982 169.842" enable-background="new 0 0 192.982 169.842"
	 xml:space="preserve">
<g>
	<path fill="#D7D5D6" d="M100.212,0.084c2.833,0.208,4.854,1.109,7.243,1.888c4.622,1.509,9.041,3.354,12.573,6.713
		c1.896,1.802,3.976,2.082,6.2,1.727c7.908-1.255,15.496-0.218,22.894,2.732c10.208,4.069,17.121,11.328,20.563,21.7
		c1.395,4.201,3.377,8.311,3,13.01c-0.176,2.189-0.799,3.059-3.096,3.187c-16.122,0.889-25.281,10.584-30.479,24.815
		c-1.297,3.551-2.328,5.202-6.685,4.14c-18.833-4.59-37.947-4.938-57.187-3.064c-5.292,0.517-10.295,1.635-15.213,3.604
		c-2.618,1.048-4.532,0.679-5.522-2.938c-2.583-9.417-8.457-16.668-16.321-22.401c-4.075-2.97-8.787-3.895-13.547-4.077
		c-3.77-0.144-4.996-1.778-4.438-5.063C22.052,35.174,26.62,25.7,35.173,18.452c7.684-6.512,16.962-8.547,26.67-8.858
		c5.313-0.169,10.004-0.31,14.723-4.108c3.4-2.739,8.259-3.896,13.333-4.813c1.141-0.206,1.875-0.333,2.896-0.458
		C95.74-0.154,97.747-0.166,100.212,0.084z"/>
	<path fill="#D7D5D6" d="M146.885,148.066c1.885,3.318,3.755,6.402,5.421,9.594c2.244,4.299,1.018,9.028-2.775,11.33
		c-3.111,1.891-8.161,0.889-10.593-2.74c-3.189-4.763-5.986-9.807-8.677-14.875c-1.14-2.144-2.42-2.965-4.848-2.953
		c-18.49,0.092-36.987,0.172-55.479-0.039c-4.256-0.051-5.791,2.808-6.929,5.563c-1.619,3.918-3.838,7.377-6.157,10.826
		c-3.381,5.031-7.488,6.363-11.708,3.896c-3.793-2.22-4.726-7.408-2.169-12.4c1.356-2.65,4.767-4.811,3.828-7.922
		c-0.899-2.979-4.88-2.44-7.391-3.701c-6.288-3.157-8.893-8.881-11.253-14.954c-3.234-8.324-6.933-16.479-9.906-24.894
		c-1.495-4.227-4.767-6.194-7.936-8.528C2.447,90.475-2.07,83.207,0.938,73.149c3.205-10.716,16.292-18.733,27.57-12.307
		C35.54,64.85,40.21,70.66,42.892,78.57c1.77,5.217,4.47,10.196,6.243,15.494c0.714,2.133,1.912,2.715,4.021,1.581
		c15.255-8.191,31.725-11.002,48.752-9.724c12.241,0.918,24.422,2.985,35.684,8.416c3.179,1.532,5.104,1.471,6.597-2.402
		c2.342-6.083,5.359-11.905,8.093-17.835c5.642-12.235,16.68-19.03,28.502-13.624c6.539,2.99,10.987,8.096,11.975,15.218
		c1.174,8.49-2.272,15.879-9.319,20.293c-5.998,3.759-9.202,8.313-11.215,14.974c-2.787,9.226-6.299,18.349-10.615,26.953
		C158.888,143.334,153.38,146.651,146.885,148.066z"/>
</g>
</svg>
